<?xml version="1.0" encoding="UTF-8"?>
<svg id="Layer_2" data-name="Layer 2" xmlns="http://www.w3.org/2000/svg" viewBox="0 0 113.23 13.03">
  <defs>
    <style>
      .cls-1 {
        fill: #4d5ae5;
      }

      .cls-2 {
        fill: #f4f4fd;
      }
    </style>
  </defs>
  <g id="Layer_1-2" data-name="Layer 1">
    <g>
      <path class="cls-1" d="M5.54,.14h2.72s1.33,4.09,1.33,4.09L10.93,.14h2.74s-2.18,5.94-2.18,5.94l1.3,3.4L15.98,.13h3.22s-4.99,12.78-4.99,12.78h-2.56s-2.07-5-2.07-5l-2.05,5h-2.57S0,.13,0,.13H3.2s3.22,9.36,3.22,9.36l1.26-3.4L5.54,.14ZM29.84,10.31v2.59h-8.98V.13h8.82V2.72h-5.87s0,2.48,0,2.48h5.04v2.39h-5.04s0,2.72,0,2.72h6.03Zm12.9-.68c0,.73-.2,1.34-.59,1.84-.38,.48-.91,.84-1.57,1.08-.66,.24-1.39,.36-2.18,.36h-6.23V.13h7.11c.6,0,1.12,.16,1.55,.49,.44,.31,.78,.72,1.01,1.22,.24,.5,.36,1.03,.36,1.57,0,.6-.16,1.18-.47,1.73-.31,.54-.77,.95-1.37,1.22,.73,.22,1.31,.6,1.73,1.15,.43,.55,.65,1.26,.65,2.12Zm-3.01-.59c0-.28-.05-.52-.16-.72-.11-.22-.25-.38-.43-.5-.17-.13-.37-.2-.61-.2h-3.4s0,2.79,0,2.79h3.28c.25,0,.47-.06,.67-.18,.2-.12,.37-.28,.49-.49,.12-.2,.18-.44,.18-.7Zm-4.61-6.39v2.65h2.9c.22,0,.41-.05,.59-.14,.19-.1,.35-.24,.47-.43,.12-.2,.18-.46,.18-.76s-.05-.53-.16-.72c-.1-.19-.23-.34-.4-.43-.17-.11-.36-.16-.58-.16h-3.01Z"/>
      <path class="cls-2" d="M52.25,3.85c-.04-.06-.16-.15-.38-.27-.22-.13-.49-.27-.81-.41s-.68-.27-1.06-.38c-.38-.11-.77-.16-1.15-.16-.5,0-.89,.09-1.17,.27-.28,.17-.41,.43-.41,.79,0,.29,.1,.52,.31,.68,.22,.17,.52,.32,.92,.45,.4,.12,.88,.26,1.46,.43,.82,.22,1.52,.48,2.12,.79,.6,.3,1.06,.69,1.37,1.17,.32,.48,.49,1.12,.49,1.91,0,.72-.13,1.33-.4,1.84-.26,.49-.62,.89-1.08,1.21-.44,.3-.95,.52-1.53,.67-.58,.13-1.17,.2-1.78,.2s-1.27-.06-1.93-.18c-.65-.13-1.27-.31-1.87-.54-.6-.24-1.15-.53-1.66-.86l1.3-2.57c.05,.06,.2,.17,.47,.34,.26,.16,.59,.32,.97,.5,.4,.17,.83,.32,1.31,.45s.97,.2,1.46,.2c.53,0,.92-.08,1.17-.25,.26-.17,.4-.4,.4-.7,0-.32-.14-.58-.41-.76-.26-.18-.63-.34-1.1-.49-.46-.14-.98-.31-1.58-.49-.78-.24-1.43-.51-1.94-.81-.5-.3-.88-.67-1.13-1.1-.24-.43-.36-.97-.36-1.62,0-.9,.21-1.66,.63-2.27,.43-.62,1.01-1.09,1.73-1.4C47.3,.16,48.09,0,48.94,0c.6,0,1.18,.07,1.73,.22,.56,.14,1.09,.32,1.57,.54,.49,.22,.93,.43,1.31,.65l-1.3,2.45Zm13.68-1.15h-3.89s0,10.19,0,10.19h-2.95s0-10.19,0-10.19h-3.91V.11s10.75,0,10.75,0V2.7Zm7.47,10.3c-1.02,0-1.89-.17-2.61-.5-.72-.35-1.31-.82-1.76-1.4-.44-.6-.77-1.28-.99-2.03-.2-.77-.31-1.57-.31-2.41V.11s2.95,0,2.95,0V6.64c0,.48,.05,.95,.14,1.4,.1,.44,.25,.84,.47,1.19,.22,.35,.49,.62,.83,.83,.35,.2,.77,.31,1.28,.31s.95-.1,1.3-.31c.35-.22,.62-.5,.83-.85,.2-.36,.35-.76,.45-1.21,.1-.44,.14-.9,.14-1.37V.11s2.95,0,2.95,0V6.64c0,.89-.11,1.72-.34,2.48-.22,.77-.55,1.45-1.01,2.03-.46,.58-1.04,1.03-1.76,1.35-.71,.32-1.56,.49-2.56,.49Zm8.5-.11V.11s4.77,0,4.77,0c1.4,0,2.57,.29,3.51,.86,.95,.56,1.66,1.33,2.14,2.3,.48,.96,.72,2.03,.72,3.2,0,1.3-.26,2.42-.79,3.38s-1.27,1.7-2.23,2.23c-.95,.53-2.06,.79-3.35,.79h-4.77Zm8.14-6.41c0-.74-.13-1.4-.4-1.96-.26-.58-.65-1.02-1.15-1.33-.5-.32-1.11-.49-1.82-.49h-1.82s0,7.6,0,7.6h1.82c.72,0,1.33-.16,1.82-.49,.5-.34,.89-.79,1.15-1.37,.26-.59,.4-1.24,.4-1.96Zm5.29,6.41V.11s2.95,0,2.95,0V12.89s-2.95,0-2.95,0Zm11.53,.11c-.96,0-1.83-.18-2.61-.54-.77-.37-1.43-.86-2-1.48-.55-.62-.98-1.32-1.28-2.09-.3-.78-.45-1.58-.45-2.41s.16-1.66,.47-2.43c.32-.77,.77-1.45,1.33-2.05,.58-.61,1.25-1.09,2.03-1.44,.78-.35,1.63-.52,2.56-.52s1.81,.19,2.57,.56c.78,.36,1.45,.85,2,1.48,.56,.62,1,1.33,1.3,2.11,.3,.77,.45,1.55,.45,2.36,0,.85-.16,1.66-.47,2.43-.31,.77-.76,1.46-1.33,2.07-.58,.6-1.25,1.08-2.03,1.44-.77,.35-1.61,.52-2.54,.52Zm-3.33-6.48c0,.49,.07,.97,.22,1.44,.14,.46,.35,.86,.63,1.22,.29,.36,.64,.65,1.06,.86,.42,.22,.9,.32,1.44,.32s1.06-.11,1.48-.32c.42-.23,.77-.53,1.04-.9,.28-.37,.48-.79,.61-1.24,.14-.47,.22-.94,.22-1.42s-.07-.97-.22-1.42c-.14-.46-.36-.86-.65-1.22-.29-.37-.64-.66-1.06-.86-.42-.2-.89-.31-1.42-.31-.56,0-1.06,.11-1.48,.32-.41,.22-.76,.51-1.04,.88-.28,.36-.49,.77-.63,1.24-.13,.46-.2,.92-.2,1.4Z"/>
    </g>
  </g>
</svg>